<?xml version="1.0" encoding="UTF-8"?>
<svg version="1.1" viewBox="0 0 128 128" xml:space="preserve" xmlns="http://www.w3.org/2000/svg"><g fill="#ffd15d" stroke="#000" stroke-linecap="round" stroke-linejoin="bevel"><path d="m24.625 13.124h76.514c12.178 0 21.982 9.0218 21.982 20.228v50.979c0 11.207-9.8041 20.228-21.982 20.228h-76.514c-12.178 0-21.982-9.0219-21.982-20.228v-50.979c0-11.207 9.8041-20.228 21.982-20.228z" stroke-width="3.2851"/><path d="m6.6998 109.32h38.401" stroke-width="3.6072"/><path d="m60.825 109.32h38.227" stroke-width="3.8949"/><path d="m105.25 109.32h3.8177" stroke-width="3.6072"/><path d="m16.702 116.62h38.401" stroke-width="3.6072"/><path d="m63.348 116.77h38.227" stroke-width="3.8949"/><path d="m6.6998 116.93h3.8177" stroke-width="3.6072"/><path d="m50.751 109.59h3.8177" stroke-width="3.6072"/></g><path d="m110.88 116.34a2 2 0 0 1-2 2 2 2 0 0 1-2-2 2 2 0 0 1 2-2 2 2 0 0 1 2 2z"/><path d="m107.46 28.265-90.502 0.24259 1.2528 56.739 78.919 0.35615 25.998 24.929-14.245-37.037-1.0684-45.334" fill="#f68eb5" stroke="#000" stroke-linecap="round" stroke-linejoin="round" stroke-width="6.3506"/><path d="m60.784 71.984q-1.3822 0.56972-2.513 1.0682-1.1057 0.4985-2.9151 1.0445-1.533 0.45103-3.3424 0.75962-1.7843 0.33234-3.9455 0.33234-4.0711 0-7.4135-1.0682-3.3172-1.092-5.78-3.3946-2.4125-2.2551-3.7696-5.7209-1.357-3.4895-1.357-8.0947 0-4.3678 1.3068-7.8099 1.3068-3.442 3.7696-5.8159 2.3874-2.3026 5.7549-3.5133 3.3926-1.2107 7.514-1.2107 3.0157 0 6.0062 0.68841 3.0157 0.68841 6.6847 2.4213v5.5785h-0.37696q-3.091-2.445-6.1318-3.5607-3.0408-1.1157-6.5088-1.1157-2.8397 0-5.1266 0.87832-2.2617 0.85458-4.046 2.6824-1.734 1.7804-2.7141 4.5103-0.95496 2.7062-0.95496 6.2669 0 3.7269 1.0555 6.4093 1.0806 2.6824 2.7644 4.3678 1.7591 1.7566 4.0963 2.6112 2.3623 0.83084 4.9758 0.83084 3.5937 0 6.735-1.1632 3.1413-1.1632 5.8805-3.4895h0.35183zm35.937 0q-1.3822 0.56972-2.513 1.0682-1.1057 0.4985-2.9151 1.0445-1.533 0.45103-3.3424 0.75962-1.7843 0.33234-3.9455 0.33234-4.0711 0-7.4135-1.0682-3.3172-1.092-5.78-3.3946-2.4125-2.2551-3.7696-5.7209-1.357-3.4895-1.357-8.0947 0-4.3678 1.3068-7.8099 1.3068-3.442 3.7696-5.8159 2.3874-2.3026 5.7549-3.5133 3.3926-1.2107 7.514-1.2107 3.0157 0 6.0062 0.68841 3.0157 0.68841 6.6847 2.4213v5.5785h-0.37696q-3.091-2.445-6.1318-3.5607-3.0408-1.1157-6.5088-1.1157-2.8397 0-5.1266 0.87832-2.2617 0.85458-4.046 2.6824-1.734 1.7804-2.7141 4.5103-0.95496 2.7062-0.95496 6.2669 0 3.7269 1.0555 6.4093 1.0806 2.6824 2.7644 4.3678 1.7591 1.7566 4.0963 2.6112 2.3623 0.83084 4.9758 0.83084 3.5937 0 6.735-1.1632 3.1413-1.1632 5.8805-3.4895h0.35183z" stroke="#000" stroke-linecap="round" stroke-linejoin="bevel" stroke-width="5.0326" aria-label="CC"/></svg>
